<svg width="30" height="31" viewBox="0 0 30 31" fill="none" xmlns="http://www.w3.org/2000/svg">
<g clip-path="url(#clip0_1_132)">
<path d="M1.9 24.04H12.7V25.94H12.1C11.5667 25.94 11.1167 26.1234 10.75 26.49C10.3833 26.8567 10.1667 27.3067 10.1 27.84V28.44C10.1 28.5734 10.15 28.6734 10.25 28.74C10.35 28.8067 10.4667 28.84 10.6 28.84H19.4C19.5333 28.84 19.65 28.8067 19.75 28.74C19.85 28.6734 19.9 28.5734 19.9 28.44V27.84C19.8333 27.3067 19.6167 26.8567 19.25 26.49C18.8833 26.1234 18.4333 25.94 17.9 25.94H17.3V24.04H28.1C28.6333 23.9734 29.0833 23.7567 29.45 23.39C29.8167 23.0234 30 22.5734 30 22.04V3.34003C30 2.80669 29.8167 2.35669 29.45 1.99003C29.0833 1.62336 28.6333 1.44003 28.1 1.44003H1.9C1.36667 1.44003 0.916667 1.62336 0.55 1.99003C0.183333 2.35669 0 2.80669 0 3.34003V22.04C0 22.5734 0.183333 23.0234 0.55 23.39C0.916667 23.7567 1.36667 23.9734 1.9 24.04ZM18.9 27.84V27.94H11.1V27.84C11.1 27.5734 11.2 27.34 11.4 27.14C11.6 26.94 11.8333 26.84 12.1 26.84H17.9C18.1667 26.84 18.4 26.94 18.6 27.14C18.8 27.34 18.9 27.5734 18.9 27.84ZM16.3 25.94H13.7V24.04H16.3V25.94ZM28.1 23.04H1.9C1.63333 23.04 1.4 22.94 1.2 22.74C1 22.54 0.9 22.3067 0.9 22.04V21.24H29.1V22.04C29.1 22.3067 29 22.54 28.8 22.74C28.6 22.94 28.3667 23.04 28.1 23.04ZM1.9 2.34003H28.1C28.3667 2.34003 28.6 2.44003 28.8 2.64003C29 2.84003 29.1 3.07336 29.1 3.34003V20.24H0.9V3.34003C0.9 3.07336 1 2.84003 1.2 2.64003C1.4 2.44003 1.63333 2.34003 1.9 2.34003ZM15.5 22.14C15.5 22.2734 15.45 22.39 15.35 22.49C15.25 22.59 15.1333 22.64 15 22.64C14.8667 22.64 14.75 22.59 14.65 22.49C14.55 22.39 14.5 22.2734 14.5 22.14C14.5 22.0067 14.55 21.89 14.65 21.79C14.75 21.69 14.8667 21.64 15 21.64C15.1333 21.64 15.25 21.69 15.35 21.79C15.45 21.89 15.5 22.0067 15.5 22.14ZM12.7 11.24V15.04C12.3667 15.1067 12.1 15.2734 11.9 15.54C11.7 15.8067 11.6 16.1067 11.6 16.44V17.34C11.6 17.4734 11.65 17.59 11.75 17.69C11.85 17.79 11.9667 17.84 12.1 17.84H26.5C26.6333 17.84 26.75 17.79 26.85 17.69C26.95 17.59 27 17.4734 27 17.34V16.44C27 16.1067 26.9167 15.8234 26.75 15.59C26.5833 15.3567 26.3667 15.1734 26.1 15.04V7.34003C26.1 7.20669 26.0667 7.09003 26 6.99003C25.9333 6.89003 25.8333 6.84003 25.7 6.84003H23.7C23.5667 6.84003 23.45 6.89003 23.35 6.99003C23.25 7.09003 23.2 7.20669 23.2 7.34003V14.94H22.6V10.04C22.6 9.90669 22.55 9.79003 22.45 9.69003C22.35 9.59003 22.2333 9.54003 22.1 9.54003H20.2C20.0667 9.54003 19.95 9.59003 19.85 9.69003C19.75 9.79003 19.7 9.90669 19.7 10.04V14.94H19.1V8.64003C19.1 8.50669 19.05 8.39003 18.95 8.29003C18.85 8.19003 18.7333 8.14003 18.6 8.14003H16.7C16.5667 8.14003 16.45 8.19003 16.35 8.29003C16.25 8.39003 16.2 8.50669 16.2 8.64003V14.94H15.6V11.24C15.6 11.1067 15.55 10.99 15.45 10.89C15.35 10.79 15.2333 10.74 15.1 10.74H13.1C12.9667 10.74 12.8667 10.79 12.8 10.89C12.7333 10.99 12.7 11.1067 12.7 11.24ZM26.1 16.94H12.5V16.44C12.5 16.24 12.55 16.09 12.65 15.99C12.75 15.89 12.8667 15.84 13 15.84H25.5C25.7 15.84 25.85 15.89 25.95 15.99C26.05 16.09 26.1 16.24 26.1 16.44V16.94ZM24.2 7.84003H25.2V14.94H24.2V7.84003ZM20.7 10.44H21.7V14.94H20.7V10.44ZM17.1 9.04003H18.1V14.94H17.1V9.04003ZM14.6 11.74V14.94H13.6V11.74H14.6ZM13.4 9.34003C13.2667 9.27336 13.2167 9.17336 13.25 9.04003C13.2833 8.90669 13.3333 8.80669 13.4 8.74003L17.2 5.54003C17.3333 5.40669 17.5 5.37336 17.7 5.44003L21.2 7.04003L23.9 4.64003H23.4C23.2 4.64003 23.0667 4.55669 23 4.39003C22.9333 4.22336 22.95 4.05669 23.05 3.89003C23.15 3.72336 23.2667 3.67336 23.4 3.74003L25.1 3.84003C25.2333 3.84003 25.35 3.89003 25.45 3.99003C25.55 4.09003 25.5667 4.20669 25.5 4.34003L25.4 6.04003C25.4 6.17336 25.35 6.27336 25.25 6.34003C25.15 6.40669 25.0333 6.44003 24.9 6.44003C24.7667 6.44003 24.65 6.39003 24.55 6.29003C24.45 6.19003 24.4333 6.07336 24.5 5.94003V5.44003L21.6 7.94003C21.4667 8.07336 21.3 8.07336 21.1 7.94003L17.6 6.44003L14 9.44003C13.9333 9.50669 13.8333 9.54003 13.7 9.54003C13.5667 9.54003 13.4667 9.47336 13.4 9.34003ZM9 11.14C9.86667 11.14 10.6333 10.84 11.3 10.24C11.9667 9.64003 12.3333 8.90669 12.4 8.04003C12.4 7.90669 12.35 7.79003 12.25 7.69003C12.15 7.59003 12.0333 7.54003 11.9 7.54003H9.2V4.84003C9.2 4.70669 9.15 4.59003 9.05 4.49003C8.95 4.39003 8.83333 4.34003 8.7 4.34003C7.76667 4.40669 7.01667 4.79003 6.45 5.49003C5.88333 6.19003 5.61667 6.99003 5.65 7.89003C5.68333 8.79003 6.03333 9.55669 6.7 10.19C7.36667 10.8234 8.13333 11.14 9 11.14ZM8.2 5.34003V8.04003C8.2 8.17336 8.25 8.29003 8.35 8.39003C8.45 8.49003 8.56667 8.54003 8.7 8.54003H11.4C11.2 9.07336 10.85 9.49003 10.35 9.79003C9.85 10.09 9.31667 10.2067 8.75 10.14C8.18333 10.0734 7.7 9.84003 7.3 9.44003C6.9 9.04003 6.66667 8.55669 6.6 7.99003C6.53333 7.42336 6.65 6.89003 6.95 6.39003C7.25 5.89003 7.66667 5.54003 8.2 5.34003ZM9.8 7.34003H12.4C12.6 7.34003 12.7333 7.29003 12.8 7.19003C12.8667 7.09003 12.9 6.97336 12.9 6.84003C12.8333 6.04003 12.5167 5.35669 11.95 4.79003C11.3833 4.22336 10.7 3.90669 9.9 3.84003C9.76667 3.77336 9.65 3.79003 9.55 3.89003C9.45 3.99003 9.4 4.10669 9.4 4.24003V6.84003C9.4 6.97336 9.43333 7.09003 9.5 7.19003C9.56667 7.29003 9.66667 7.34003 9.8 7.34003ZM10.3 4.84003C11.1 5.10669 11.6333 5.64003 11.9 6.44003H10.3V4.84003ZM3.3 16.14L3.9 16.24V16.44L3.6 16.84C3.4 17.04 3.4 17.24 3.6 17.44L4.3 18.24C4.43333 18.44 4.6 18.5067 4.8 18.44L5.4 18.14L5.5 18.24L5.6 18.74C5.6 19.0067 5.73333 19.1734 6 19.24L7.1 19.34C7.3 19.34 7.43333 19.2067 7.5 18.94L7.7 18.44L7.8 18.34L8.3 18.74C8.5 18.8734 8.7 18.8734 8.9 18.74L9.7 18.04C9.9 17.9067 9.93333 17.7067 9.8 17.44L9.6 16.94V16.84L10.2 16.74C10.4667 16.74 10.6 16.6067 10.6 16.34L10.7 15.24C10.7667 15.04 10.6667 14.8734 10.4 14.74L9.8 14.64V14.44L10.2 14.04C10.3333 13.84 10.3333 13.64 10.2 13.44L9.5 12.54C9.3 12.4067 9.1 12.3734 8.9 12.44L8.4 12.74L8.3 12.64L8.2 12.04C8.13333 11.84 8 11.7067 7.8 11.64L6.7 11.54C6.43333 11.54 6.26667 11.6734 6.2 11.94L6 12.44L5.9 12.54L5.4 12.14C5.2 12.0067 5 12.0067 4.8 12.14L4 12.84C3.8 12.9734 3.76667 13.1734 3.9 13.44L4.2 13.94L4.1 14.04L3.5 14.14C3.23333 14.14 3.1 14.2734 3.1 14.54L3 15.64C3 15.84 3.1 16.0067 3.3 16.14ZM4 15.04L4.5 14.94C4.7 14.94 4.83333 14.84 4.9 14.64L5.1 14.24C5.23333 14.04 5.23333 13.8734 5.1 13.74L4.9 13.34L5.2 13.14L5.5 13.44C5.63333 13.5067 5.8 13.5067 6 13.44L6.5 13.34C6.7 13.2734 6.8 13.1734 6.8 13.04L7 12.54H7.3L7.4 13.04C7.4 13.24 7.5 13.3734 7.7 13.44L8.1 13.64C8.23333 13.7734 8.4 13.8067 8.6 13.74L9 13.44L9.2 13.74L8.9 14.14C8.76667 14.2734 8.73333 14.4067 8.8 14.54L9 15.04C9 15.24 9.1 15.3734 9.3 15.44L9.8 15.54L9.7 15.84L9.3 15.94C9.1 15.94 8.96667 16.04 8.9 16.24L8.6 16.64C8.53333 16.7734 8.53333 16.94 8.6 17.14L8.8 17.54L8.6 17.74L8.2 17.44C8.06667 17.3734 7.9 17.3734 7.7 17.44L7.3 17.54C7.1 17.6067 6.96667 17.7067 6.9 17.84L6.8 18.34H6.4V17.84C6.4 17.64 6.3 17.5067 6.1 17.44L5.7 17.24C5.5 17.1067 5.33333 17.0734 5.2 17.14L4.7 17.44L4.5 17.14L4.8 16.74C4.93333 16.6067 4.96667 16.4734 4.9 16.34L4.8 15.84C4.73333 15.64 4.6 15.5067 4.4 15.44L4 15.34V15.04ZM6.7 17.14C6.76667 17.14 6.83333 17.14 6.9 17.14C7.36667 17.14 7.76667 16.9734 8.1 16.64C8.43333 16.3067 8.6 15.9067 8.6 15.44C8.6 14.9734 8.43333 14.5734 8.1 14.24C7.76667 13.9067 7.38333 13.74 6.95 13.74C6.51667 13.74 6.11667 13.89 5.75 14.19C5.38333 14.49 5.18333 14.8734 5.15 15.34C5.11667 15.8067 5.25 16.2067 5.55 16.54C5.85 16.8734 6.23333 17.0734 6.7 17.14ZM6.1 15.34C6.1 15.14 6.18333 14.9734 6.35 14.84C6.51667 14.7067 6.7 14.64 6.9 14.64C7.16667 14.7067 7.36667 14.8234 7.5 14.99C7.63333 15.1567 7.68333 15.34 7.65 15.54C7.61667 15.74 7.51667 15.9067 7.35 16.04C7.18333 16.1734 7 16.2234 6.8 16.19C6.6 16.1567 6.43333 16.0567 6.3 15.89C6.16667 15.7234 6.1 15.54 6.1 15.34Z" fill="white"/>
</g>
<defs>
<clipPath id="clip0_1_132">
<rect width="30" height="30" fill="white" transform="matrix(1 0 0 -1 0 30.14)"/>
</clipPath>
</defs>
</svg>
