<svg width="30" height="31" viewBox="0 0 30 31" fill="none" xmlns="http://www.w3.org/2000/svg">
<g clip-path="url(#clip0_1_112)">
<path d="M12 25.2044C11.8667 25.1377 11.75 25.0544 11.65 24.9544C11.55 24.8544 11.5 24.7711 11.5 24.7044L12.1 20.6044C12.1 20.4711 12.15 20.3711 12.25 20.3044C12.35 20.2377 12.4667 20.2044 12.6 20.2044C12.7333 20.2044 12.8333 20.2544 12.9 20.3544C12.9667 20.4544 13 20.5711 13 20.7044L12.5 24.7044C12.4333 25.0377 12.2667 25.2044 12 25.2044ZM18 25.2044C17.7333 25.2044 17.5667 25.0377 17.5 24.7044L17 20.7044C17 20.5711 17.0333 20.4544 17.1 20.3544C17.1667 20.2544 17.2667 20.2044 17.4 20.2044C17.5333 20.2044 17.65 20.2377 17.75 20.3044C17.85 20.3711 17.9 20.4711 17.9 20.6044L18.5 24.7044C18.5 24.7711 18.45 24.8711 18.35 25.0044C18.25 25.1377 18.1333 25.2044 18 25.2044ZM22.6 28.4044H7.40001C7.06668 28.4044 6.90001 28.2711 6.90001 28.0044C6.90001 26.9377 7.20001 26.0377 7.80001 25.3044C8.40001 24.5711 9.06668 24.2044 9.80001 24.2044H20.2C21 24.2044 21.6833 24.5711 22.25 25.3044C22.8167 26.0377 23.1 26.9377 23.1 28.0044C23.1 28.2711 22.9333 28.4044 22.6 28.4044ZM7.90001 27.5044H22.2C22.1333 26.8377 21.9 26.2877 21.5 25.8544C21.1 25.4211 20.6667 25.2044 20.2 25.2044H9.80001C9.26668 25.2044 8.81668 25.4377 8.45001 25.9044C8.08335 26.3711 7.90001 26.9044 7.90001 27.5044ZM27 21.2044H25.4C25.0667 21.2044 24.9 21.0377 24.9 20.7044C24.9 20.3711 25.0667 20.2044 25.4 20.2044H27C27.4 20.2044 27.7333 20.0711 28 19.8044C28.2667 19.5377 28.4 19.2044 28.4 18.8044V3.00441C28.4 2.60441 28.2667 2.27107 28 2.00441C27.7333 1.73774 27.4 1.60441 27 1.60441H3.00001C2.60001 1.60441 2.26668 1.73774 2.00001 2.00441C1.73335 2.27107 1.60001 2.60441 1.60001 3.00441V18.8044C1.60001 19.2044 1.73335 19.5377 2.00001 19.8044C2.26668 20.0711 2.60001 20.2044 3.00001 20.2044H19.6C19.8667 20.2044 20 20.3544 20 20.6544C20 20.9544 19.8667 21.1044 19.6 21.1044H3.00001C2.33335 21.1044 1.78335 20.8711 1.35001 20.4044C0.916679 19.9377 0.700012 19.4044 0.700012 18.8044V3.00441C0.700012 2.33774 0.916679 1.78774 1.35001 1.35441C1.78335 0.921074 2.33335 0.704407 3.00001 0.704407H27C27.6667 0.704407 28.2167 0.921074 28.65 1.35441C29.0833 1.78774 29.3 2.33774 29.3 3.00441V18.8044C29.3 19.4711 29.0833 20.0377 28.65 20.5044C28.2167 20.9711 27.6667 21.2044 27 21.2044ZM8.00001 16.2044H4.70001C4.43335 16.2044 4.30001 16.0377 4.30001 15.7044V12.0044C4.30001 11.7377 4.43335 11.6044 4.70001 11.6044H8.00001C8.33335 11.6044 8.50001 11.7377 8.50001 12.0044V15.7044C8.50001 16.0377 8.33335 16.2044 8.00001 16.2044ZM5.20001 15.3044H7.60001V12.5044H5.20001V15.3044ZM13.8 16.0044H10.5C10.1667 16.0044 10 15.8711 10 15.6044V10.7044C10 10.4377 10.1667 10.3044 10.5 10.3044H13.8C14.0667 10.3044 14.2 10.4377 14.2 10.7044V15.6044C14.2 15.8711 14.0667 16.0044 13.8 16.0044ZM10.9 15.1044H13.3V11.2044H10.9V15.1044ZM18.2 15.9044H16.2C15.9333 15.9044 15.8 15.7711 15.8 15.5044V9.70441C15.8 9.37107 15.9333 9.20441 16.2 9.20441H19.5C19.8333 9.20441 20 9.37107 20 9.70441V13.6044C20 13.9377 19.85 14.1044 19.55 14.1044C19.25 14.1044 19.1 13.9377 19.1 13.6044V10.1044H16.7V15.0044H18.2C18.5333 15.0044 18.7 15.1544 18.7 15.4544C18.7 15.7544 18.5333 15.9044 18.2 15.9044ZM25.3 13.9044C24.9667 13.9044 24.8 13.7711 24.8 13.5044V8.80441H22.4V12.6044C22.4 12.8711 22.25 13.0044 21.95 13.0044C21.65 13.0044 21.5 12.8711 21.5 12.6044V8.30441C21.5 8.03774 21.6667 7.90441 22 7.90441H25.3C25.5667 7.90441 25.7 8.03774 25.7 8.30441V13.5044C25.7 13.7711 25.5667 13.9044 25.3 13.9044ZM22.1 6.90441C22.0333 6.90441 22 6.90441 22 6.90441C21.7333 6.77107 21.6 6.57107 21.6 6.30441L22.3 4.30441L19.7 3.90441C19.6333 3.83774 19.55 3.75441 19.45 3.65441C19.35 3.55441 19.3333 3.43774 19.4 3.30441C19.4 3.03774 19.5667 2.93774 19.9 3.00441L23 3.50441C23.1333 3.57107 23.2333 3.65441 23.3 3.75441C23.3667 3.85441 23.3667 3.97107 23.3 4.10441L22.5 6.60441C22.4333 6.80441 22.3 6.90441 22.1 6.90441ZM6.40001 9.70441C6.20001 9.70441 6.06668 9.65441 6.00001 9.55441C5.93335 9.45441 5.91668 9.33774 5.95001 9.20441C5.98335 9.07107 6.03335 8.97107 6.10001 8.90441L9.00001 6.70441C9.13335 6.63774 9.26668 6.63774 9.40001 6.70441L12 7.70441L14.6 4.90441C14.8 4.77107 15 4.73774 15.2 4.80441L17.8 6.20441L22.6 3.70441C22.7333 3.63774 22.85 3.62107 22.95 3.65441C23.05 3.68774 23.1333 3.75441 23.2 3.85441C23.2667 3.95441 23.2833 4.07107 23.25 4.20441C23.2167 4.33774 23.1333 4.43774 23 4.50441L18 7.10441C17.8667 7.17107 17.7333 7.17107 17.6 7.10441L15.1 5.80441L12.5 8.50441C12.3 8.63774 12.1333 8.67107 12 8.60441L9.30001 7.70441L6.60001 9.70441H6.40001ZM22.5 22.2044C21.1 22.2044 19.9167 21.7044 18.95 20.7044C17.9833 19.7044 17.5 18.5044 17.5 17.1044C17.5 15.7044 17.9833 14.5211 18.95 13.5544C19.9167 12.5877 21.1 12.1044 22.5 12.1044C23.9 12.1044 25.0833 12.5877 26.05 13.5544C27.0167 14.5211 27.5 15.7044 27.5 17.1044C27.5 18.5044 27.0167 19.7044 26.05 20.7044C25.0833 21.7044 23.9 22.2044 22.5 22.2044ZM22.5 13.0044C21.3667 13.0044 20.4 13.4044 19.6 14.2044C18.8 15.0044 18.4 15.9711 18.4 17.1044C18.4 18.2377 18.8 19.2044 19.6 20.0044C20.4 20.8044 21.3667 21.2044 22.5 21.2044C23.6333 21.2044 24.6 20.8044 25.4 20.0044C26.2 19.2044 26.6 18.2377 26.6 17.1044C26.6 15.9711 26.2 15.0044 25.4 14.2044C24.6 13.4044 23.6333 13.0044 22.5 13.0044ZM25.4 23.8044C25.2 23.8044 25.0667 23.7377 25 23.6044L24 21.6044C24 21.4711 24.0167 21.3544 24.05 21.2544C24.0833 21.1544 24.15 21.0711 24.25 21.0044C24.35 20.9377 24.4667 20.9377 24.6 21.0044C24.7333 21.0711 24.8333 21.1377 24.9 21.2044L25.8 23.2044C25.8 23.3377 25.7833 23.4544 25.75 23.5544C25.7167 23.6544 25.6667 23.7211 25.6 23.7544C25.5333 23.7877 25.4667 23.8044 25.4 23.8044ZM27.5 29.7044C27.1667 29.7044 26.8833 29.6377 26.65 29.5044C26.4167 29.3711 26.2333 29.1711 26.1 28.9044L24.3 24.9044C24.1667 24.5711 24.1667 24.2211 24.3 23.8544C24.4333 23.4877 24.6667 23.2044 25 23.0044L25.3 22.9044C25.6333 22.7711 25.9833 22.7711 26.35 22.9044C26.7167 23.0377 27 23.3044 27.2 23.7044L29 27.6044C29.2 27.9377 29.2167 28.2877 29.05 28.6544C28.8833 29.0211 28.6333 29.3044 28.3 29.5044L28 29.6044C27.8667 29.6711 27.7 29.7044 27.5 29.7044ZM25.9 23.7044C25.7667 23.7044 25.6667 23.7044 25.6 23.7044L25.4 23.8044C25.2667 23.8711 25.1833 23.9877 25.15 24.1544C25.1167 24.3211 25.1 24.4711 25.1 24.6044L26.9 28.5044C26.9667 28.6377 27.0833 28.7377 27.25 28.8044C27.4167 28.8711 27.5667 28.8711 27.7 28.8044L27.9 28.7044C28.0333 28.6377 28.1333 28.5377 28.2 28.4044C28.2667 28.2711 28.2667 28.1377 28.2 28.0044L26.4 24.0044C26.2667 23.8044 26.1 23.7044 25.9 23.7044ZM16.1 19.7044H13.1C12.7667 19.7044 12.6 19.5377 12.6 19.2044C12.6 18.8711 12.7667 18.7044 13.1 18.7044H16.1C16.3667 18.7044 16.5 18.8711 16.5 19.2044C16.5 19.5377 16.3667 19.7044 16.1 19.7044ZM28.9 18.2044H27C26.7333 18.2044 26.6 18.0544 26.6 17.7544C26.6 17.4544 26.7333 17.3044 27 17.3044H28.9C29.1667 17.3044 29.3 17.4544 29.3 17.7544C29.3 18.0544 29.1667 18.2044 28.9 18.2044ZM18 18.2044H1.10001C0.833346 18.2044 0.700012 18.0544 0.700012 17.7544C0.700012 17.4544 0.833346 17.3044 1.10001 17.3044H18C18.2667 17.3044 18.4 17.4544 18.4 17.7544C18.4 18.0544 18.2667 18.2044 18 18.2044ZM25.3 17.6044C25.0333 17.6044 24.9 17.4711 24.9 17.2044C24.9 16.5377 24.6667 15.9711 24.2 15.5044C23.7333 15.0377 23.1667 14.8044 22.5 14.8044C22.1667 14.8044 22 14.6544 22 14.3544C22 14.0544 22.1667 13.9044 22.5 13.9044C23.4333 13.9044 24.2167 14.2211 24.85 14.8544C25.4833 15.4877 25.8 16.2711 25.8 17.2044C25.8 17.4711 25.6333 17.6044 25.3 17.6044Z" fill="white"/>
</g>
<defs>
<clipPath id="clip0_1_112">
<rect width="30" height="30" fill="white" transform="matrix(1 0 0 -1 0 30.2044)"/>
</clipPath>
</defs>
</svg>
