<svg width="30" height="31" viewBox="0 0 30 31" fill="none" xmlns="http://www.w3.org/2000/svg">
<path d="M23.5 5.99957C23.9 5.99957 24.2166 5.88291 24.45 5.64957C24.6833 5.41624 24.8 5.11624 24.8 4.74957C24.8 4.38291 24.6833 4.06624 24.45 3.79957C24.2166 3.53291 23.9166 3.39957 23.55 3.39957C23.1833 3.39957 22.8666 3.53291 22.6 3.79957C22.3333 4.06624 22.2 4.38291 22.2 4.74957C22.2 5.11624 22.3333 5.41624 22.6 5.64957C22.8666 5.88291 23.1666 5.99957 23.5 5.99957ZM23.5 4.19957C23.6333 4.19957 23.7666 4.24957 23.9 4.34957C24.0333 4.44957 24.1 4.56624 24.1 4.69957C24.1 4.8329 24.0333 4.96624 23.9 5.09957C23.7666 5.23291 23.6333 5.29957 23.5 5.29957C23.3666 5.29957 23.25 5.23291 23.15 5.09957C23.05 4.96624 23 4.8329 23 4.69957C23 4.56624 23.05 4.44957 23.15 4.34957C23.25 4.24957 23.3666 4.19957 23.5 4.19957ZM20.3 5.99957C20.7 5.99957 21.0166 5.88291 21.25 5.64957C21.4833 5.41624 21.6166 5.11624 21.65 4.74957C21.6833 4.38291 21.5666 4.06624 21.3 3.79957C21.0333 3.53291 20.7166 3.39957 20.35 3.39957C19.9833 3.39957 19.6666 3.53291 19.4 3.79957C19.1333 4.06624 19 4.38291 19 4.74957C19 5.11624 19.1333 5.41624 19.4 5.64957C19.6666 5.88291 19.9666 5.99957 20.3 5.99957ZM20.3 4.19957C20.5 4.19957 20.65 4.24957 20.75 4.34957C20.85 4.44957 20.9 4.56624 20.9 4.69957C20.9 4.8329 20.85 4.96624 20.75 5.09957C20.65 5.23291 20.5166 5.29957 20.35 5.29957C20.1833 5.29957 20.05 5.23291 19.95 5.09957C19.85 4.96624 19.8 4.8329 19.8 4.69957C19.8 4.56624 19.85 4.44957 19.95 4.34957C20.05 4.24957 20.1666 4.19957 20.3 4.19957ZM17.2 5.99957C17.5333 5.99957 17.8333 5.88291 18.1 5.64957C18.3666 5.41624 18.5 5.11624 18.5 4.74957C18.5 4.38291 18.3666 4.06624 18.1 3.79957C17.8333 3.53291 17.5166 3.39957 17.15 3.39957C16.7833 3.39957 16.4666 3.53291 16.2 3.79957C15.9333 4.06624 15.8 4.38291 15.8 4.74957C15.8 5.11624 15.9333 5.41624 16.2 5.64957C16.4666 5.88291 16.8 5.99957 17.2 5.99957ZM17.2 4.19957C17.3333 4.19957 17.45 4.24957 17.55 4.34957C17.65 4.44957 17.7 4.56624 17.7 4.69957C17.7 4.8329 17.65 4.96624 17.55 5.09957C17.45 5.23291 17.3166 5.29957 17.15 5.29957C16.9833 5.29957 16.85 5.23291 16.75 5.09957C16.65 4.96624 16.6 4.8329 16.6 4.69957C16.6 4.56624 16.65 4.44957 16.75 4.34957C16.85 4.24957 17 4.19957 17.2 4.19957ZM3.79998 5.09957H13.6C13.7333 5.09957 13.8333 5.06624 13.9 4.99957C13.9666 4.93291 14 4.84957 14 4.74957C14 4.64957 13.9666 4.54957 13.9 4.44957C13.8333 4.34957 13.7333 4.29957 13.6 4.29957H3.79998C3.66664 4.29957 3.56664 4.34957 3.49998 4.44957C3.43331 4.54957 3.39998 4.64957 3.39998 4.74957C3.39998 4.84957 3.43331 4.93291 3.49998 4.99957C3.56664 5.06624 3.63331 5.09957 3.69998 5.09957H3.79998ZM14.4 13.7996H23.7C23.9 13.7996 24.0666 13.7329 24.2 13.5996C24.3333 13.4662 24.4 13.3329 24.4 13.1996V9.69957C24.4 9.56624 24.3333 9.43291 24.2 9.29957C24.0666 9.16624 23.9 9.09957 23.7 9.09957H14.4C14.2666 9.09957 14.1333 9.16624 14 9.29957C13.8666 9.43291 13.8 9.56624 13.8 9.69957V13.1996C13.8 13.3329 13.8666 13.4662 14 13.5996C14.1333 13.7329 14.2666 13.7996 14.4 13.7996ZM14.6 9.89957H23.6V12.9996H14.6V9.89957ZM22.2 15.1996H16.6C16.5333 15.1996 16.45 15.2329 16.35 15.2996C16.25 15.3662 16.2 15.4496 16.2 15.5496C16.2 15.6496 16.25 15.7329 16.35 15.7996C16.45 15.8662 16.5333 15.8996 16.6 15.8996H22.2C22.3333 15.8996 22.4333 15.8662 22.5 15.7996C22.5666 15.7329 22.6 15.6496 22.6 15.5496C22.6 15.4496 22.55 15.3662 22.45 15.2996C22.35 15.2329 22.2666 15.1996 22.2 15.1996ZM20.1 17.2996H14.2C14.0666 17.2996 13.9666 17.3329 13.9 17.3996C13.8333 17.4662 13.8 17.5496 13.8 17.6496C13.8 17.7496 13.8333 17.8329 13.9 17.8996C13.9666 17.9662 14.0666 17.9996 14.2 17.9996H20.1C20.1666 17.9996 20.2333 17.9662 20.3 17.8996C20.3666 17.8329 20.4 17.7496 20.4 17.6496C20.4 17.5496 20.3666 17.4662 20.3 17.3996C20.2333 17.3329 20.1666 17.2996 20.1 17.2996ZM14.2 20.0996H19.7C19.7666 20.0996 19.8333 20.0662 19.9 19.9996C19.9666 19.9329 20 19.8496 20 19.7496C20 19.6496 19.9666 19.5662 19.9 19.4996C19.8333 19.4329 19.7666 19.3996 19.7 19.3996H14.2C14.0666 19.3996 13.9666 19.4329 13.9 19.4996C13.8333 19.5662 13.8 19.6496 13.8 19.7496C13.8 19.8496 13.8333 19.9329 13.9 19.9996C13.9666 20.0662 14.0666 20.0996 14.2 20.0996ZM19.8 21.4996H14.2C14.0666 21.4996 13.9666 21.5329 13.9 21.5996C13.8333 21.6662 13.8 21.7496 13.8 21.8496C13.8 21.9496 13.8333 22.0329 13.9 22.0996C13.9666 22.1662 14.0666 22.1996 14.2 22.1996H19.8C19.8666 22.1996 19.95 22.1662 20.05 22.0996C20.15 22.0329 20.2 21.9496 20.2 21.8496C20.2 21.7496 20.15 21.6662 20.05 21.5996C19.95 21.5329 19.8666 21.4996 19.8 21.4996ZM9.89998 23.7996L7.69998 22.1996C7.43331 21.9996 7.16664 21.9829 6.89998 22.1496C6.63331 22.3162 6.49998 22.5662 6.49998 22.8996V25.9996C6.49998 26.3329 6.63331 26.5662 6.89998 26.6996C7.03331 26.7662 7.16664 26.7996 7.29998 26.7996C7.43331 26.7996 7.56664 26.7662 7.69998 26.6996L9.89998 25.0996C10.1 24.8996 10.2 24.6662 10.2 24.3996C10.2 24.1329 10.1 23.9329 9.89998 23.7996ZM9.49998 24.3996L7.19998 25.9996L7.29998 22.7996L9.49998 24.4996V24.3996ZM29.4 13.6996C29.3333 13.1662 29.1166 12.7662 28.75 12.4996C28.3833 12.2329 28 12.0996 27.6 12.0996V3.29957C27.6 2.89957 27.4666 2.56624 27.2 2.29957C26.9333 2.03291 26.6333 1.89957 26.3 1.89957H1.89998C1.56664 1.89957 1.26664 2.03291 0.999976 2.29957C0.733309 2.56624 0.599976 2.89957 0.599976 3.29957V23.3996C0.599976 23.7996 0.733309 24.1329 0.999976 24.3996C1.26664 24.6662 1.56664 24.7996 1.89998 24.7996H3.09998C3.16664 26.1329 3.68331 27.2496 4.64998 28.1496C5.61664 29.0496 6.76664 29.4996 8.09998 29.4996C9.43331 29.4996 10.5833 29.0496 11.55 28.1496C12.5166 27.2496 13.0333 26.1329 13.1 24.7996H26.3C26.6333 24.7996 26.9333 24.6662 27.2 24.3996C27.4666 24.1329 27.6 23.7996 27.6 23.3996V17.0996L29.1 15.0996C29.3666 14.6996 29.4666 14.2329 29.4 13.6996ZM28.7 13.7996C28.7 14.1329 28.6 14.4329 28.4 14.6996L28.2 14.9996L26.4 13.5996L26.6 13.2996C26.8 13.0996 27.0666 12.9662 27.4 12.8996H27.5C27.7666 12.8996 28.0166 12.9829 28.25 13.1496C28.4833 13.3162 28.6333 13.5329 28.7 13.7996ZM24.4 20.1996L22.6 18.7996L26 14.2996L27.8 15.5996L24.4 20.1996ZM22.1 19.7996C22.1 19.7329 22.1333 19.6329 22.2 19.4996L23.9 20.6996L23.6 20.8996L21.9 21.6996L22.1 19.7996ZM1.89998 2.69957H26.3C26.4333 2.69957 26.5666 2.74957 26.7 2.84957C26.8333 2.94957 26.9 3.09957 26.9 3.29957V6.79957H1.29998V3.29957C1.29998 3.09957 1.36664 2.94957 1.49998 2.84957C1.63331 2.74957 1.76664 2.69957 1.89998 2.69957ZM8.09998 28.6996C6.89998 28.6996 5.88331 28.2829 5.04998 27.4496C4.21664 26.6162 3.79998 25.6162 3.79998 24.4496C3.79998 23.2829 4.21664 22.2829 5.04998 21.4496C5.88331 20.6162 6.89998 20.1829 8.09998 20.1496C9.29998 20.1162 10.3166 20.5329 11.15 21.3996C11.9833 22.2662 12.4 23.2829 12.4 24.4496C12.4 25.6162 11.9833 26.6162 11.15 27.4496C10.3166 28.2829 9.29998 28.6996 8.09998 28.6996ZM26.9 23.3996C26.9 23.5996 26.8333 23.7496 26.7 23.8496C26.5666 23.9496 26.4333 23.9996 26.3 23.9996H13.1C13.0333 22.7329 12.5166 21.6496 11.55 20.7496C10.5833 19.8496 9.43331 19.3996 8.09998 19.3996C6.76664 19.3996 5.61664 19.8496 4.64998 20.7496C3.68331 21.6496 3.16664 22.7329 3.09998 23.9996H1.89998C1.76664 23.9996 1.63331 23.9496 1.49998 23.8496C1.36664 23.7496 1.29998 23.5996 1.29998 23.3996V7.49957H26.9V12.1996C26.5 12.3329 26.2 12.5662 26 12.8996L21.8 18.6996C21.5333 19.0329 21.4 19.3996 21.4 19.7996L21.1 21.9996C21.1 22.1996 21.1666 22.3496 21.3 22.4496C21.4333 22.5496 21.5666 22.5996 21.7 22.5996H21.9L23.9 21.6996C24.3 21.4996 24.6 21.2329 24.8 20.8996L26.9 18.0996V23.3996ZM11.5 14.1996L11.1 13.9996C11.1 13.5996 11.0666 13.2329 11 12.8996L11.4 12.5996C11.6666 12.3996 11.7333 12.1329 11.6 11.7996L11.3 11.2996C11.1666 11.0329 10.9333 10.9329 10.6 10.9996L10.2 11.0996C9.93331 10.7662 9.63331 10.4996 9.29998 10.2996L9.39998 9.79957C9.39998 9.53291 9.26664 9.33291 8.99998 9.19957L8.39998 8.99957C8.06664 8.86624 7.83331 8.93291 7.69998 9.19957L7.39998 9.59957C7.06664 9.59957 6.69998 9.63291 6.29998 9.69957L5.99998 9.29957C5.79998 9.09957 5.56664 9.06624 5.29998 9.19957L4.69998 9.39957C4.43331 9.59957 4.33331 9.83291 4.39998 10.0996L4.49998 10.5996C4.23331 10.7996 3.96664 11.0662 3.69998 11.3996H3.29998C2.96664 11.3329 2.73331 11.4662 2.59998 11.7996L2.39998 12.3996C2.33331 12.6662 2.43331 12.8996 2.69998 13.0996L3.09998 13.2996C3.03331 13.6996 3.03331 14.0662 3.09998 14.3996L2.79998 14.6996C2.53331 14.8996 2.46664 15.1662 2.59998 15.4996L2.89998 15.9996C3.03331 16.2662 3.23331 16.3662 3.49998 16.2996L3.99998 16.1996C4.26664 16.5329 4.53331 16.7996 4.79998 16.9996V17.4996C4.79998 17.7662 4.93331 17.9662 5.19998 18.0996L5.99998 18.2996C6.19998 18.2996 6.36664 18.2329 6.49998 18.0996L6.79998 17.5996C7.13331 17.6662 7.49998 17.6662 7.89998 17.5996L8.19998 17.9996C8.39998 18.1996 8.63331 18.2329 8.89998 18.0996L9.49998 17.7996C9.76664 17.6662 9.86664 17.4662 9.79998 17.1996L9.69998 16.6996C9.96664 16.4329 10.2 16.1662 10.4 15.8996H10.9C11.2333 15.9662 11.4333 15.8329 11.5 15.4996L11.7 14.8996C11.8333 14.6329 11.7666 14.3996 11.5 14.1996ZM10.9 15.0996H10.3C10.1 15.0996 9.96664 15.1662 9.89998 15.2996C9.63331 15.6996 9.33331 16.0329 8.99998 16.2996C8.86664 16.3662 8.83331 16.4662 8.89998 16.5996L8.99998 17.1996L8.69998 17.3996L8.29998 16.8996C8.23331 16.7662 8.09998 16.7329 7.89998 16.7996C7.49998 16.9329 7.06664 16.9662 6.59998 16.8996C6.46664 16.8329 6.33331 16.8662 6.19998 16.9996L5.89998 17.4996L5.59998 17.3996L5.69998 16.7996C5.69998 16.6662 5.63331 16.5662 5.49998 16.4996C5.09998 16.2329 4.76664 15.9329 4.49998 15.5996C4.36664 15.4662 4.23331 15.3996 4.09998 15.3996L3.49998 15.5996L3.39998 15.2996L3.79998 14.8996C3.93331 14.7662 3.99998 14.6329 3.99998 14.4996C3.86664 14.0329 3.83331 13.5996 3.89998 13.1996C3.89998 12.9996 3.83331 12.8662 3.69998 12.7996L3.19998 12.4996L3.29998 12.1996H3.89998C4.09998 12.1996 4.23331 12.1329 4.29998 11.9996C4.49998 11.6662 4.76664 11.3662 5.09998 11.0996C5.23331 10.9662 5.29998 10.8329 5.29998 10.6996L5.19998 10.0996L5.49998 9.89957L5.89998 10.3996C5.96664 10.5329 6.09998 10.5662 6.29998 10.4996C6.69998 10.3662 7.13331 10.3329 7.59998 10.3996C7.73331 10.4662 7.83331 10.4329 7.89998 10.2996L8.29998 9.79957L8.59998 9.89957L8.49998 10.4996C8.49998 10.6329 8.56664 10.7329 8.69998 10.7996C9.09998 11.0662 9.43331 11.3662 9.69998 11.6996C9.76664 11.8329 9.89998 11.8996 10.1 11.8996L10.7 11.6996L10.8 11.9996L10.3 12.3996C10.2333 12.5329 10.2 12.6662 10.2 12.7996C10.3333 13.2662 10.3666 13.6996 10.3 14.0996C10.3 14.2996 10.3666 14.4329 10.5 14.4996L11 14.7996L10.9 15.0996ZM7.69998 11.7996C7.23331 11.6662 6.74998 11.6996 6.24998 11.8996C5.74998 12.0996 5.41664 12.4662 5.24998 12.9996C5.08331 13.5329 5.09998 14.0329 5.29998 14.4996C5.49998 14.8329 5.74998 15.0996 6.04998 15.2996C6.34998 15.4996 6.66664 15.5996 6.99998 15.5996C7.33331 15.5996 7.63331 15.5329 7.89998 15.3996C8.36664 15.1329 8.69998 14.7496 8.89998 14.2496C9.09998 13.7496 9.08331 13.2662 8.84998 12.7996C8.61664 12.3329 8.23331 11.9996 7.69998 11.7996ZM7.59998 14.6996C7.33331 14.8329 7.03331 14.8496 6.69998 14.7496C6.36664 14.6496 6.13331 14.4496 5.99998 14.1496C5.86664 13.8496 5.84998 13.5496 5.94998 13.2496C6.04998 12.9496 6.21664 12.7496 6.44998 12.6496C6.68331 12.5496 6.88331 12.4996 7.04998 12.4996C7.21664 12.4996 7.36664 12.4996 7.49998 12.4996C7.76664 12.6329 7.96664 12.8496 8.09998 13.1496C8.23331 13.4496 8.24998 13.7496 8.14998 14.0496C8.04998 14.3496 7.86664 14.5662 7.59998 14.6996Z" fill="white"/>
</svg>
