<svg width="30" height="31" viewBox="0 0 30 31" fill="none" xmlns="http://www.w3.org/2000/svg">
<g clip-path="url(#clip0_1_138)">
<path d="M7.9 22.1203C8.3 22.1203 8.63333 21.987 8.9 21.7203C9.16667 21.4536 9.3 21.1536 9.3 20.8203V19.3203L10.5 20.1203C10.9667 20.4536 11.4667 20.4703 12 20.1703C12.5333 19.8703 12.8 19.4203 12.8 18.8203V15.7203C12.8 15.1203 12.5333 14.6703 12 14.3703C11.4667 14.0703 10.9667 14.087 10.5 14.4203L8.7 15.5203H7.1C6.56667 15.5203 6.13333 15.687 5.8 16.0203C5.46667 16.3536 5.3 16.737 5.3 17.1703C5.3 17.6036 5.41667 17.987 5.65 18.3203C5.88333 18.6536 6.2 18.8536 6.6 18.9203V20.8203C6.6 21.1536 6.73333 21.4536 7 21.7203C7.26667 21.987 7.56667 22.1203 7.9 22.1203ZM8.4 20.8203C8.4 20.887 8.35 20.9703 8.25 21.0703C8.15 21.1703 8.05 21.2203 7.95 21.2203C7.85 21.2203 7.75 21.1703 7.65 21.0703C7.55 20.9703 7.5 20.887 7.5 20.8203V19.0203H8.4V20.8203ZM10.9 15.1203C11.1 14.987 11.3167 14.987 11.55 15.1203C11.7833 15.2536 11.9 15.4536 11.9 15.7203V18.8203C11.9 19.087 11.7833 19.287 11.55 19.4203C11.3167 19.5536 11.1 19.5203 10.9 19.3203L9.3 18.3203V16.1203L10.9 15.1203ZM6.2 17.2203C6.2 17.0203 6.28333 16.8203 6.45 16.6203C6.61667 16.4203 6.83333 16.3203 7.1 16.3203H8.4V18.1203H7.1C6.83333 18.1203 6.61667 18.037 6.45 17.8703C6.28333 17.7036 6.2 17.487 6.2 17.2203ZM24 0.920288H6C4.93333 0.920288 3.93333 1.18695 3 1.72029C2.06667 2.25362 1.33333 2.98695 0.8 3.92029C0.266667 4.85362 0 5.85362 0 6.92029V24.9203C0 25.987 0.266667 26.987 0.8 27.9203C1.33333 28.8536 2.06667 29.587 3 30.1203C3.93333 30.6536 4.93333 30.9203 6 30.9203H8.8C8.93333 30.9203 9.05 30.8703 9.15 30.7703C9.25 30.6703 9.3 30.5703 9.3 30.4703C9.3 30.3703 9.25 30.2703 9.15 30.1703C9.05 30.0703 8.93333 30.0203 8.8 30.0203H6C4.6 30.0203 3.4 29.5203 2.4 28.5203C1.4 27.5203 0.9 26.3203 0.9 24.9203V8.02029H29.1V24.9203C29.1 26.3203 28.6 27.5203 27.6 28.5203C26.6 29.5203 25.4 30.0203 24 30.0203H10.9C10.7667 30.0203 10.65 30.0703 10.55 30.1703C10.45 30.2703 10.4 30.3703 10.4 30.4703C10.4 30.5703 10.45 30.6703 10.55 30.7703C10.65 30.8703 10.7667 30.9203 10.9 30.9203H24C25.0667 30.9203 26.0667 30.6536 27 30.1203C27.9333 29.587 28.6667 28.8536 29.2 27.9203C29.7333 26.987 30 25.987 30 24.9203V6.92029C30 5.85362 29.7333 4.85362 29.2 3.92029C28.6667 2.98695 27.9333 2.25362 27 1.72029C26.0667 1.18695 25.0667 0.920288 24 0.920288ZM0.9 7.12029V6.92029C0.9 5.52029 1.4 4.32029 2.4 3.32029C3.4 2.32029 4.6 1.82029 6 1.82029H24C25.4 1.82029 26.6 2.32029 27.6 3.32029C28.6 4.32029 29.1 5.52029 29.1 6.92029V7.12029H0.9ZM24.7 3.12029C24.3667 3.12029 24.0667 3.25362 23.8 3.52029C23.5333 3.78695 23.4 4.10362 23.4 4.47029C23.4 4.83695 23.5333 5.13696 23.8 5.37029C24.0667 5.60362 24.3833 5.72029 24.75 5.72029C25.1167 5.72029 25.4167 5.60362 25.65 5.37029C25.8833 5.13696 26 4.83695 26 4.47029C26 4.10362 25.8833 3.78695 25.65 3.52029C25.4167 3.25362 25.1 3.12029 24.7 3.12029ZM24.7 4.92029C24.5667 4.92029 24.4667 4.87029 24.4 4.77029C24.3333 4.67029 24.3 4.55362 24.3 4.42029C24.3 4.28695 24.3333 4.18695 24.4 4.12029C24.4667 4.05362 24.5667 4.02029 24.7 4.02029C24.8333 4.02029 24.95 4.05362 25.05 4.12029C25.15 4.18695 25.2 4.28695 25.2 4.42029C25.2 4.55362 25.15 4.67029 25.05 4.77029C24.95 4.87029 24.8333 4.92029 24.7 4.92029ZM20.7 3.12029C20.3667 3.12029 20.0667 3.25362 19.8 3.52029C19.5333 3.78695 19.4 4.10362 19.4 4.47029C19.4 4.83695 19.5333 5.13696 19.8 5.37029C20.0667 5.60362 20.3833 5.72029 20.75 5.72029C21.1167 5.72029 21.4333 5.60362 21.7 5.37029C21.9667 5.13696 22.1 4.83695 22.1 4.47029C22.1 4.10362 21.9667 3.78695 21.7 3.52029C21.4333 3.25362 21.1 3.12029 20.7 3.12029ZM20.7 4.92029C20.6333 4.92029 20.55 4.87029 20.45 4.77029C20.35 4.67029 20.3 4.55362 20.3 4.42029C20.3 4.28695 20.35 4.18695 20.45 4.12029C20.55 4.05362 20.65 4.02029 20.75 4.02029C20.85 4.02029 20.95 4.05362 21.05 4.12029C21.15 4.18695 21.2 4.28695 21.2 4.42029C21.2 4.55362 21.15 4.67029 21.05 4.77029C20.95 4.87029 20.8333 4.92029 20.7 4.92029ZM16.8 3.12029C16.4 3.12029 16.0667 3.25362 15.8 3.52029C15.5333 3.78695 15.4 4.10362 15.4 4.47029C15.4 4.83695 15.5333 5.13696 15.8 5.37029C16.0667 5.60362 16.3833 5.72029 16.75 5.72029C17.1167 5.72029 17.4333 5.60362 17.7 5.37029C17.9667 5.13696 18.1 4.83695 18.1 4.47029C18.1 4.10362 17.9667 3.78695 17.7 3.52029C17.4333 3.25362 17.1333 3.12029 16.8 3.12029ZM16.8 4.92029C16.6667 4.92029 16.55 4.87029 16.45 4.77029C16.35 4.67029 16.3 4.55362 16.3 4.42029C16.3 4.28695 16.35 4.18695 16.45 4.12029C16.55 4.05362 16.65 4.02029 16.75 4.02029C16.85 4.02029 16.95 4.05362 17.05 4.12029C17.15 4.18695 17.2 4.28695 17.2 4.42029C17.2 4.55362 17.15 4.67029 17.05 4.77029C16.95 4.87029 16.8667 4.92029 16.8 4.92029ZM19 10.2203H6.3C5.43333 10.2203 4.68333 10.5203 4.05 11.1203C3.41667 11.7203 3.1 12.487 3.1 13.4203V22.9203C3.1 23.787 3.41667 24.5203 4.05 25.1203C4.68333 25.7203 5.43333 26.0203 6.3 26.0203H11.8C12.4667 26.0203 13.0333 26.2536 13.5 26.7203L14.7 27.9203C14.7667 27.987 14.8667 28.0203 15 28.0203C15.1333 28.0203 15.2333 27.987 15.3 27.9203L16.5 26.7203C16.9667 26.2536 17.5333 26.0203 18.2 26.0203H23.7C24.5667 26.0203 25.3167 25.7203 25.95 25.1203C26.5833 24.5203 26.9 23.787 26.9 22.9203V13.4203C26.9 12.487 26.5833 11.7203 25.95 11.1203C25.3167 10.5203 24.5667 10.2203 23.7 10.2203H21C20.8667 10.2203 20.7667 10.2536 20.7 10.3203C20.6333 10.387 20.6 10.487 20.6 10.6203C20.6 10.7536 20.6333 10.8536 20.7 10.9203C20.7667 10.987 20.8667 11.0203 21 11.0203H23.7C24.3667 11.0203 24.9167 11.2536 25.35 11.7203C25.7833 12.187 26 12.7536 26 13.4203V22.9203C26 23.5203 25.7833 24.0536 25.35 24.5203C24.9167 24.987 24.3667 25.2203 23.7 25.2203H18.2C17.2667 25.2203 16.4667 25.5203 15.8 26.1203L15 27.0203L14.2 26.1203C13.5333 25.5203 12.7333 25.2203 11.8 25.2203H6.3C5.63333 25.2203 5.08333 24.987 4.65 24.5203C4.21667 24.0536 4 23.5203 4 22.9203V13.4203C4 12.7536 4.21667 12.187 4.65 11.7203C5.08333 11.2536 5.63333 11.0203 6.3 11.0203H19C19.1333 11.0203 19.2333 10.987 19.3 10.9203C19.3667 10.8536 19.4 10.7536 19.4 10.6203C19.4 10.487 19.3667 10.387 19.3 10.3203C19.2333 10.2536 19.1333 10.2203 19 10.2203ZM14.1 15.1203V21.1203C14.1 21.787 14.3333 22.337 14.8 22.7703C15.2667 23.2036 15.8 23.4203 16.4 23.4203H22.4C23.0667 23.4203 23.6167 23.2036 24.05 22.7703C24.4833 22.337 24.7 21.787 24.7 21.1203V15.1203C24.7 14.4536 24.4833 13.9036 24.05 13.4703C23.6167 13.037 23.0667 12.8203 22.4 12.8203H16.4C15.8 12.8203 15.2667 13.037 14.8 13.4703C14.3333 13.9036 14.1 14.4536 14.1 15.1203ZM23.8 15.1203V21.1203C23.8 21.5203 23.6667 21.8536 23.4 22.1203C23.1333 22.387 22.8 22.5203 22.4 22.5203H16.4C16 22.5203 15.6667 22.387 15.4 22.1203C15.1333 21.8536 15 21.5203 15 21.1203V15.1203C15 14.7203 15.1333 14.387 15.4 14.1203C15.6667 13.8536 16 13.7203 16.4 13.7203H22.4C22.8 13.7203 23.1333 13.8536 23.4 14.1203C23.6667 14.387 23.8 14.7203 23.8 15.1203ZM20.7 19.0203H21C21.5333 19.0203 21.9833 18.8203 22.35 18.4203C22.7167 18.0203 22.9 17.5536 22.9 17.0203C22.9 16.487 22.7167 16.0203 22.35 15.6203C21.9833 15.2203 21.5333 15.0203 21 15.0203H20.7C20.6333 15.0203 20.55 15.0703 20.45 15.1703C20.35 15.2703 20.3 15.387 20.3 15.5203V18.5203C20.3 18.6536 20.35 18.7703 20.45 18.8703C20.55 18.9703 20.6333 19.0203 20.7 19.0203ZM21.2 15.9203C21.4667 15.987 21.6833 16.1203 21.85 16.3203C22.0167 16.5203 22.1 16.7536 22.1 17.0203C22.1 17.287 22.0167 17.5203 21.85 17.7203C21.6833 17.9203 21.4667 18.0536 21.2 18.1203V15.9203ZM15.9 18.4203C15.8333 18.487 15.8333 18.587 15.9 18.7203C15.9667 18.8536 16.05 18.937 16.15 18.9703C16.25 19.0036 16.3667 19.0036 16.5 18.9703C16.6333 18.937 16.7 18.8536 16.7 18.7203L17 18.1203H18.3L18.6 18.7203C18.6667 18.9203 18.7833 19.0203 18.95 19.0203C19.1167 19.0203 19.25 18.9536 19.35 18.8203C19.45 18.687 19.4667 18.5536 19.4 18.4203L18.1 15.3203C17.9667 15.1203 17.8167 15.0203 17.65 15.0203C17.4833 15.0203 17.3333 15.1203 17.2 15.3203L15.9 18.4203ZM17.6 16.6203L17.9 17.2203H17.4L17.6 16.6203ZM22.5 20.3203H16.3C16.1667 20.3203 16.0667 20.3703 16 20.4703C15.9333 20.5703 15.9 20.6703 15.9 20.7703C15.9 20.8703 15.9333 20.9703 16 21.0703C16.0667 21.1703 16.1667 21.2203 16.3 21.2203H22.5C22.6333 21.2203 22.7333 21.1703 22.8 21.0703C22.8667 20.9703 22.9 20.8703 22.9 20.7703C22.9 20.6703 22.8667 20.5703 22.8 20.4703C22.7333 20.3703 22.6333 20.3203 22.5 20.3203Z" fill="white"/>
</g>
<defs>
<clipPath id="clip0_1_138">
<rect width="30" height="30" fill="white" transform="matrix(1 0 0 -1 0 30.9203)"/>
</clipPath>
</defs>
</svg>
