<svg width="30" height="31" viewBox="0 0 30 31" fill="none" xmlns="http://www.w3.org/2000/svg">
<g clip-path="url(#clip0_1_144)">
<path d="M3.8 16.5996H16.1C16.1667 16.5996 16.25 16.5496 16.35 16.4496C16.45 16.3496 16.5 16.2496 16.5 16.1496C16.5 16.0496 16.45 15.9496 16.35 15.8496C16.25 15.7496 16.1667 15.6996 16.1 15.6996H3.8C3.73333 15.6996 3.65 15.7496 3.55 15.8496C3.45 15.9496 3.4 16.0496 3.4 16.1496C3.4 16.2496 3.45 16.3496 3.55 16.4496C3.65 16.5496 3.73333 16.5996 3.8 16.5996ZM3.8 18.6996H16.1C16.1667 18.6996 16.25 18.6663 16.35 18.5996C16.45 18.5329 16.5 18.4329 16.5 18.2996C16.5 18.1663 16.45 18.0663 16.35 17.9996C16.25 17.9329 16.1667 17.8996 16.1 17.8996H3.8C3.73333 17.8996 3.65 17.9329 3.55 17.9996C3.45 18.0663 3.4 18.1663 3.4 18.2996C3.4 18.4329 3.45 18.5329 3.55 18.5996C3.65 18.6663 3.73333 18.6996 3.8 18.6996ZM3.8 20.8996H14.1C14.1667 20.8996 14.25 20.8496 14.35 20.7496C14.45 20.6496 14.5 20.5496 14.5 20.4496C14.5 20.3496 14.45 20.2496 14.35 20.1496C14.25 20.0496 14.1667 19.9996 14.1 19.9996H3.8C3.73333 19.9996 3.65 20.0496 3.55 20.1496C3.45 20.2496 3.4 20.3496 3.4 20.4496C3.4 20.5496 3.45 20.6496 3.55 20.7496C3.65 20.8496 3.73333 20.8996 3.8 20.8996ZM29.5 14.3996C29.5 12.5329 29.15 10.7663 28.45 9.09958C27.75 7.43292 26.7667 5.96625 25.5 4.69958C24.2333 3.43292 22.7667 2.44958 21.1 1.74958C19.4333 1.04959 17.6833 0.699585 15.85 0.699585C14.0167 0.699585 12.2667 1.04959 10.6 1.74958C8.93333 2.44958 7.43333 3.43292 6.1 4.69958C4.36667 6.49958 3.2 8.59958 2.6 10.9996C1.93333 11.1996 1.41667 11.5829 1.05 12.1496C0.683333 12.7163 0.5 13.3329 0.5 13.9996V21.4996C0.5 22.4329 0.816667 23.1996 1.45 23.7996C2.08333 24.3996 2.83333 24.6996 3.7 24.6996H4.7C4.83333 24.6996 4.93333 24.6663 5 24.5996C5.06667 24.5329 5.1 24.4329 5.1 24.2996C5.1 24.1663 5.06667 24.0663 5 23.9996C4.93333 23.9329 4.83333 23.8996 4.7 23.8996H3.7C3.1 23.8996 2.56667 23.6663 2.1 23.1996C1.63333 22.7329 1.4 22.1663 1.4 21.4996V13.9996C1.4 13.3329 1.63333 12.7663 2.1 12.2996C2.56667 11.8329 3.1 11.5996 3.7 11.5996H16.2C16.8 11.5996 17.3333 11.8329 17.8 12.2996C18.2667 12.7663 18.5 13.3329 18.5 13.9996V21.4996C18.5 22.1663 18.2667 22.7329 17.8 23.1996C17.3333 23.6663 16.8 23.8996 16.2 23.8996H13.6C13.4667 23.8996 13.35 23.9329 13.25 23.9996C13.15 24.0663 13.1 24.1663 13.1 24.2996V27.0996C13.1 27.2329 13.0333 27.3329 12.9 27.3996C12.7667 27.4663 12.6333 27.4329 12.5 27.2996L8.6 23.9996C8.53333 23.9329 8.43333 23.8996 8.3 23.8996H6.8C6.66667 23.8996 6.55 23.9329 6.45 23.9996C6.35 24.0663 6.3 24.1663 6.3 24.2996C6.3 24.4329 6.35 24.5329 6.45 24.5996C6.55 24.6663 6.66667 24.6996 6.8 24.6996H8.1L11.9 27.9996C12.1667 28.1996 12.4167 28.2996 12.65 28.2996C12.8833 28.2996 13.1 28.2663 13.3 28.1996C13.7667 27.9996 14 27.6329 14 27.0996V24.6996H16.2C17.0667 24.6996 17.8167 24.3996 18.45 23.7996C19.0833 23.1996 19.4 22.4329 19.4 21.4996V13.9996C19.4 13.0663 19.0833 12.2996 18.45 11.6996C17.8167 11.0996 17.0667 10.7996 16.2 10.7996H5.4C6.13333 8.66625 7.4 6.93292 9.2 5.59958C11.1333 4.13292 13.3333 3.39958 15.8 3.39958C17.8 3.39958 19.65 3.88292 21.35 4.84958C23.05 5.81625 24.3833 7.14958 25.35 8.84958C26.3167 10.5496 26.8 12.3996 26.8 14.3996C26.8 14.9329 26.7667 15.4663 26.7 15.9996L26.4 15.7996C26.4667 15.3996 26.3833 15.0163 26.15 14.6496C25.9167 14.2829 25.5833 14.0329 25.15 13.8996C24.7167 13.7663 24.25 13.7996 23.75 13.9996C23.25 14.1996 22.9333 14.5663 22.8 15.0996L20.1 22.2996C19.9 22.8329 19.9167 23.3329 20.15 23.7996C20.3833 24.2663 20.7333 24.5996 21.2 24.7996C21.4667 24.8663 21.7167 24.8996 21.95 24.8996C22.1833 24.8996 22.4333 24.8329 22.7 24.6996C22.9667 24.5663 23.2 24.3663 23.4 24.0996H23.5L22.7 25.9996C22.5667 26.2663 22.3667 26.4829 22.1 26.6496C21.8333 26.8163 21.5667 26.8996 21.3 26.8996H19.4C19.1333 26.6329 18.8333 26.3996 18.5 26.1996C18.1667 25.9996 17.8 25.8996 17.4 25.8996C16.7333 25.8996 16.1667 26.1329 15.7 26.5996C15.2333 27.0663 15 27.6329 15 28.2996C15 28.9663 15.2333 29.5329 15.7 29.9996C16.1667 30.4663 16.7333 30.6996 17.4 30.6996C17.8 30.6996 18.1667 30.5996 18.5 30.3996C18.8333 30.1996 19.1333 29.9329 19.4 29.5996H21.3C22.1667 29.5996 22.95 29.3663 23.65 28.8996C24.35 28.4329 24.8667 27.7996 25.2 26.9996L26.4 23.9996C26.8667 23.7329 27.1667 23.3663 27.3 22.8996L27.8 21.6996C27.8 21.5663 27.7833 21.4496 27.75 21.3496C27.7167 21.2496 27.6333 21.1829 27.5 21.1496C27.3667 21.1163 27.25 21.1163 27.15 21.1496C27.05 21.1829 26.9667 21.2663 26.9 21.3996L26.5 22.5996C26.4333 22.8663 26.2833 23.0663 26.05 23.1996C25.8167 23.3329 25.5667 23.3996 25.3 23.3996L23.8 23.2996L26.2 16.6996L27.4 17.5996C27.6 17.7996 27.75 18.0163 27.85 18.2496C27.95 18.4829 27.9333 18.7329 27.8 18.9996L27.7 19.3996C27.6333 19.5329 27.6167 19.6496 27.65 19.7496C27.6833 19.8496 27.7667 19.9329 27.9 19.9996H28.1C28.3 19.9996 28.4333 19.8996 28.5 19.6996L28.8 18.7996C29.2667 17.3996 29.5 15.9329 29.5 14.3996ZM17.4 29.7996C16.9333 29.7996 16.55 29.6496 16.25 29.3496C15.95 29.0496 15.8 28.6996 15.8 28.2996C15.8 27.8996 15.95 27.5496 16.25 27.2496C16.55 26.9496 16.9167 26.7996 17.35 26.7996C17.7833 26.7996 18.15 26.9496 18.45 27.2496C18.75 27.5496 18.9 27.8996 18.9 28.2996C18.9 28.6996 18.75 29.0496 18.45 29.3496C18.15 29.6496 17.8 29.7996 17.4 29.7996ZM25.4 24.1996L24.4 26.5996C24.1333 27.2663 23.7167 27.7996 23.15 28.1996C22.5833 28.5996 21.9667 28.7996 21.3 28.7996H19.7L19.8 28.2996L19.7 27.7996H21.3C21.7667 27.7996 22.2167 27.6663 22.65 27.3996C23.0833 27.1329 23.3667 26.7663 23.5 26.2996L24.4 24.1996H25.4ZM25.5 15.9996L22.8 23.2996C22.7333 23.5663 22.5667 23.7663 22.3 23.8996C22.0333 24.0329 21.7667 24.0496 21.5 23.9496C21.2333 23.8496 21.05 23.6663 20.95 23.3996C20.85 23.1329 20.8333 22.8996 20.9 22.6996L23.6 15.3996C23.6667 15.1329 23.8 14.9496 24 14.8496C24.2 14.7496 24.3667 14.6996 24.5 14.6996C24.6333 14.6996 24.7667 14.7329 24.9 14.7996C25.1667 14.8663 25.35 15.0329 25.45 15.2996C25.55 15.5663 25.5667 15.7996 25.5 15.9996ZM27.5 16.5996C27.6333 15.8663 27.7 15.1329 27.7 14.3996C27.7 12.2663 27.1667 10.2829 26.1 8.44958C25.0333 6.61625 23.5833 5.16625 21.75 4.09958C19.9167 3.03292 17.9333 2.49958 15.8 2.49958C13.1333 2.49958 10.7333 3.29959 8.6 4.89958C6.6 6.43292 5.23333 8.39958 4.5 10.7996H3.5C4.1 8.66625 5.2 6.83292 6.8 5.29959C8 4.09958 9.38333 3.18292 10.95 2.54959C12.5167 1.91625 14.15 1.59958 15.85 1.59958C17.55 1.59958 19.1833 1.91625 20.75 2.54959C22.3167 3.18292 23.7 4.09958 24.9 5.29959C26.1 6.49958 27.0167 7.88292 27.65 9.44958C28.2833 11.0163 28.6 12.6663 28.6 14.3996C28.6 15.3329 28.5 16.2996 28.3 17.2996L27.9 16.8996L27.5 16.5996Z" fill="white"/>
</g>
<defs>
<clipPath id="clip0_1_144">
<rect width="30" height="30" fill="white" transform="matrix(1 0 0 -1 0 30.6996)"/>
</clipPath>
</defs>
</svg>
